# xmcd CD database file
#
# Track frame offsets:
#	150
#	15900
#	31425
#	47775
#	61087
#	77512
#	93000
#	107300
#	120037
#	131587
#	146125
#	160087
#	170275
#	186875
#	200625
#	214125
#
# Disc length: 3071 seconds
#
# Revision: 2
# Processed by: cddbd v1.5.1PL0 Copyright (c) Steve Scherf et al.
# Submitted via: CDex 1.51
#
DISCID=c30bfd10
DTITLE=verschiedene - Volkstümliche Schlagerparade CD 1
DYEAR=1900
DGENRE=
TTITLE0=Heino - Casablanca - Träume, die niemals vergehn
TTITLE1=Duo Charivari - Zwei Verliebt im Heu
TTITLE2=Pia - Bello Bambino
TTITLE3=Nero Brandenburg - Schönes Wetter
TTITLE4=Vreni Bieri - Nachts in den Bergen
TTITLE5=Roland Steinel - Wenn's im Tal ganz dunkel wird
TTITLE6=Maja Brunner - Sprich deutsch mit mir, mein Schatz
TTITLE7=Fischer Chöre - Schenk' mir den Platz an der Sonne
TTITLE8=Marianne and Michael - Servus, Servus
TTITLE9=Tanja May - Spiel noch einmal diese Melodie
TTITLE10=Ber Beel - Costa la luna
TTITLE11=Moldau Mädel - Keiner weiss, was morgen ist
TTITLE12=Patrizius /Gold'ne Hochzeit
TTITLE13=Die kleine Manuela - Mama, du bist das Liabste
TTITLE14=Andreas Hauff - Eine Rose für den Winter
TTITLE15=Vicco Torriani - La Campanella
EXTD=
EXTT0=
EXTT1=
EXTT2=
EXTT3=
EXTT4=
EXTT5=
EXTT6=
EXTT7=
EXTT8=
EXTT9=
EXTT10=
EXTT11=
EXTT12=
EXTT13=
EXTT14=
EXTT15=
PLAYORDER=
